#!OML:ASF E:\motion texture\Top Level 1\Subject 1\Session 1\male.ASF
:FULLY-SPECIFIED
:DEGREES
409
root -17.6597 18.3143 1.98788 521.78 -70.8411 -515.632
lowerback 1.82815 -4.49146 6.83608
upperback -7.27571 -5.79943 1.16153
thorax -9.30928 -3.38935 -1.94373
lowerneck -13.2464 -9.4608 -14.4588
upperneck -6.26179 -10.9575 7.28514
head 1.33023 -5.30272 3.84863
rclavicle -2.89232e-014 1.15295e-014
rhumerus 31.1625 -35.9855 0.747033
rradius 91.2214
rwrist 7.65044
rhand -32.0608 -13.117
rfingers 7.12502
rthumb -5.30747 -43.0306
lclavicle -2.89232e-014 1.15295e-014
lhumerus 48.8978 18.4596 34.2524
lradius 88.1754
lwrist -12.154
lhand -26.4807 10.4436
lfingers 7.12502
lthumb 0.0814582 40.4233
rfemur -9.47776 -1.35507 34.7792
rtibia 20.9558
rfoot -10.2126 0.879839
rtoes 21.0543
lfemur -14.4105 10.3838 -4.56415
ltibia 56.2821
lfoot -4.05047 1.57359
ltoes -16.0014
410
root -17.7397 18.3201 1.97785 521.777 -70.7527 -515.564
lowerback 1.86782 -4.36627 6.97709
upperback -7.18339 -5.61599 1.1422
thorax -9.23094 -3.30427 -2.06597
lowerneck -13.2473 -9.17681 -14.3557
upperneck -6.34388 -10.6002 7.15692
head 1.25765 -5.12856 3.82842
rclavicle -4.87022e-014 1.78906e-014
rhumerus 30.4784 -35.5489 0.964765
rradius 89.0933
rwrist 7.71561
rhand -31.4259 -13.4402
rfingers 7.12502
rthumb -4.69436 -43.3682
lclavicle -4.87022e-014 1.78906e-014
lhumerus 47.815 18.4318 33.546
lradius 86.2034
lwrist -11.8979
lhand -25.3267 10.6248
lfingers 7.12502
lthumb 1.196 40.6012
rfemur -9.12017 -1.27998 34.8107
rtibia 20.7174
rfoot -10.2989 0.688185
rtoes 20.8505
lfemur -15.1874 10.4395 -4.46167
ltibia 55.8706
lfoot -4.9226 2.11479
ltoes -16.3744
411
root -17.8193 18.3256 1.96904 521.808 -70.6547 -515.525
lowerback 1.906 -4.23567 7.1168
upperback -7.08311 -5.42545 1.12222
thorax -9.14113 -3.21481 -2.18972
lowerneck -13.2452 -8.88128 -14.274
upperneck -6.45844 -10.2263 7.06924
head 1.17755 -4.94505 3.82507
rclavicle -6.32135e-014 -1.11319e-014
rhumerus 29.7379 -35.1025 1.17543
rradius 86.9821
rwrist 7.77797
rhand -30.7085 -13.8438
rfingers 7.12502
rthumb -4.00165 -43.786
lclavicle -6.32135e-014 -1.11319e-014
lhumerus 46.6568 18.3699 32.8096
lradius 84.2414
lwrist -11.729
lhand -24.1153 10.8756
lfingers 7.12502
lthumb 2.36603 40.8422
rfemur -8.77287 -1.18715 34.8333
rtibia 20.4848
rfoot -10.3777 0.499128
rtoes 20.6217
lfemur -15.952 10.4847 -4.38282
ltibia 55.3667
lfoot -5.73115 2.71078
ltoes -16.6
412
root -17.8989 18.3308 1.96132 521.886 -70.5497 -515.535
lowerback 1.95022 -4.09875 7.24414
upperback -6.97766 -5.22667 1.10129
thorax -9.04603 -3.11979 -2.30852
lowerneck -13.2335 -8.5795 -14.2176
upperneck -6.6026 -9.84269 7.02319
head 1.09038 -4.75548 3.83907
rclavicle 2.90226e-014 3.97569e-014
rhumerus 28.9457 -34.6588 1.36147
rradius 84.9079
rwrist 7.84369
rhand -29.9014 -14.2896
rfingers 7.12502
rthumb -3.22223 -44.245
lclavicle 2.90226e-014 3.97569e-014
lhumerus 45.4275 18.2671 32.0506
lradius 82.3066
lwrist -11.6275
lhand -22.8187 11.1848
lfingers 7.12502
lthumb 3.61817 41.1339
rfemur -8.42903 -1.08041 34.8365
rtibia 20.2564
rfoot -10.4441 0.32113
rtoes 20.4057
lfemur -16.6929 10.5156 -4.33439
ltibia 54.7667
lfoot -6.46305 3.35328
ltoes -16.6844
413
root -17.9782 18.3357 1.95527 521.996 -70.4346 -515.577
lowerback 1.99504 -3.95139 7.37071
upperback -6.86588 -5.01395 1.07876
thorax -8.94191 -3.01718 -2.43053
lowerneck -13.2778 -8.29497 -14.1212
upperneck -6.70508 -9.47977 6.91749
head 1.02084 -4.57759 3.82323
rclavicle 3.58806e-014 1.03368e-014
rhumerus 28.0462 -34.2056 1.59176
rradius 82.9121
rwrist 7.886
rhand -29.069 -14.9019
rfingers 7.12502
rthumb -2.41831 -44.8679
lclavicle 3.58806e-014 1.03368e-014
lhumerus 44.1514 18.0867 31.3045
lradius 80.4031
lwrist -11.5961
lhand -21.4983 11.5547
lfingers 7.12502
lthumb 4.89318 41.4782
rfemur -8.09551 -0.967309 34.8235
rtibia 20.039
rfoot -10.5027 0.169152
rtoes 20.2001
lfemur -17.4129 10.5327 -4.31157
ltibia 54.0752
lfoot -7.11248 4.03432
ltoes -16.6206
414
root -18.0576 18.3404 1.95054 522.132 -70.3088 -515.644
lowerback 2.03643 -3.79785 7.50036
upperback -6.74444 -4.79336 1.05231
thorax -8.82396 -2.91001 -2.55998
lowerneck -13.3542 -8.01561 -13.9961
upperneck -6.79604 -9.12395 6.79205
head 0.958479 -4.40395 3.79425
rclavicle -5.82936e-014 -7.55382e-015
rhumerus 27.0823 -33.7676 1.79441
rradius 80.9964
rwrist 7.93355
rhand -28.1741 -15.6212
rfingers 7.12502
rthumb -1.55407 -45.5953
lclavicle -5.82936e-014 -7.55382e-015
lhumerus 42.828 17.8418 30.5547
lradius 78.5369
lwrist -11.6091
lhand -20.1436 11.9932
lfingers 7.12502
lthumb 6.20114 41.8824
rfemur -7.76903 -0.849377 34.7955
rtibia 19.8313
rfoot -10.5522 0.0418626
rtoes 19.9937
lfemur -18.1032 10.5312 -4.30743
ltibia 53.2855
lfoot -7.68463 4.72824
ltoes -16.3995
415
root -18.1373 18.3449 1.94711 522.28 -70.1702 -515.717
lowerback 2.07464 -3.63791 7.63684
upperback -6.61627 -4.56431 1.02566
thorax -8.69542 -2.79826 -2.69473
lowerneck -13.4521 -7.74303 -13.835
upperneck -6.87909 -8.78004 6.63866
head 0.900638 -4.2373 3.74877
rclavicle -5.6107e-014 7.95139e-016
rhumerus 26.031 -33.3302 2.00415
rradius 79.1852
rwrist 7.96051
rhand -27.2178 -16.4142
rfingers 7.12502
rthumb -0.63041 -46.393
lclavicle -5.6107e-014 7.95139e-016
lhumerus 41.4485 17.5136 29.7952
lradius 76.7122
lwrist -11.6172
lhand -18.8358 12.4872
lfingers 7.12502
lthumb 7.46366 42.3355
rfemur -7.45462 -0.726856 34.7597
rtibia 19.6368
rfoot -10.5919 -0.0568187
rtoes 19.7773
lfemur -18.766 10.5112 -4.31191
ltibia 52.4016
lfoot -8.19309 5.41344
ltoes -16.0211
416
root -18.2172 18.3491 1.94494 522.423 -70.0172 -515.779
lowerback 2.10752 -3.47176 7.78437
upperback -6.48473 -4.32698 1.0027
thorax -8.55868 -2.68236 -2.83278
lowerneck -13.5454 -7.47407 -13.649
upperneck -6.9671 -8.44596 6.46574
head 0.840568 -4.07635 3.69238
rclavicle -1.05853e-014 -7.15625e-015
rhumerus 24.9249 -32.8967 2.18833
rradius 77.4722
rwrist 7.97432
rhand -26.2086 -17.2712
rfingers 7.12502
rthumb 0.344225 -47.2507
lclavicle -1.05853e-014 -7.15625e-015
lhumerus 40.0092 17.0889 29.0273
lradius 74.9375
lwrist -11.6159
lhand -17.5902 13.0631
lfingers 7.12502
lthumb 8.66586 42.8652
rfemur -7.15527 -0.605102 34.7223
rtibia 19.4595
rfoot -10.6276 -0.123358
rtoes 19.5382
lfemur -19.4004 10.4716 -4.31606
ltibia 51.4221
lfoot -8.64014 6.06132
ltoes -15.631
417
root -18.2974 18.3531 1.94404 522.556 -69.8506 -515.82
lowerback 2.13951 -3.29892 7.94626
upperback -6.35595 -4.08022 0.984406
thorax -8.42305 -2.56239 -2.97434
lowerneck -13.6298 -7.20638 -13.4393
upperneck -7.05919 -8.11887 6.2721
head 0.777851 -3.91966 3.62523
rclavicle -2.59911e-014 -1.59028e-015
rhumerus 23.7432 -32.4431 2.36869
rradius 75.8771
rwrist 7.95249
rhand -25.1608 -18.1936
rfingers 7.12502
rthumb 1.35629 -48.169
lclavicle -2.59911e-014 -1.59028e-015
lhumerus 38.5159 16.5542 28.2794
lradius 73.2209
lwrist -11.6293
lhand -16.414 13.7133
lfingers 7.12502
lthumb 9.8008 43.4653
rfemur -6.87607 -0.487875 34.6863
rtibia 19.3021
rfoot -10.6634 -0.157127
rtoes 19.2623
lfemur -20.0091 10.4117 -4.31558
ltibia 50.3494
lfoot -9.04784 6.65376
ltoes -15.2338
